# xmcd
#
# Track frame offsets:
#	150
#	17716
#	33225
#	51388
#	64538
#	81249
#	95677
#	108560
#	130132
#	140222
#	156115
#	171546
#	188605
#	202692
#
# Disc length: 2938 seconds
#
# Revision: 1
# Processed by: cddbd v1.4PL0 Copyright (c) Steve Scherf et al.
# Submitted via: audiograbber 1.81.03
#
DISCID=c10b780e
DTITLE=Midge Marsden and Bullfrog Rata - It's What It Is
DYEAR=1900
DGENRE=Blues
TTITLE0=Feel So Good
TTITLE1=Walk On
TTITLE2=Give Me One Reason
TTITLE3=No Particular Place To Go
TTITLE4=Mystery Train
TTITLE5=Key To The Highway
TTITLE6=Diggin My Potatoes
TTITLE7=Dust My Broom
TTITLE8=Mary Had A Little Lamb
TTITLE9=Left That Town
TTITLE10=Last Time
TTITLE11=Pride And Joy
TTITLE12=Travellin On
TTITLE13=Strangers Girl
EXTD=
EXTT0=
EXTT1=
EXTT2=
EXTT3=
EXTT4=
EXTT5=
EXTT6=
EXTT7=
EXTT8=
EXTT9=
EXTT10=
EXTT11=
EXTT12=
EXTT13=
PLAYORDER=
